PathFileType	4	(X/Y/Z)	pose_F01_0-96.trc
DataRate	CameraRate	NumFrames	NumMarkers	Units	OrigDataRate	OrigDataStartFrame	OrigNumFrames
30	30	10	21	m	30	12	96
Frame#	Time	CHip			RHip			RKnee			RAnkle			RBigToe			RSmallToe			RHeel			LHip			LKnee			LAnkle			LBigToe			LSmallToe			LHeel			Neck			Nose			RShoulder			RElbow			RWrist			LShoulder			LElbow			LWrist			
		X1	Y1	Z1	X2	Y2	Z2	X3	Y3	Z3	X4	Y4	Z4	X5	Y5	Z5	X6	Y6	Z6	X7	Y7	Z7	X8	Y8	Z8	X9	Y9	Z9	X10	Y10	Z10	X11	Y11	Z11	X12	Y12	Z12	X13	Y13	Z13	X14	Y14	Z14	X15	Y15	Z15	X16	Y16	Z16	X17	Y17	Z17	X18	Y18	Z18	X19	Y19	Z19	X20	Y20	Z20	X21	Y21	Z21	
12	0.4	-0.19888364898533728	1.8742969998354413	-0.5828453103455746	-0.21340347178579105	1.8717584860091778	-0.5192664955023392	-0.20159834596357884	1.7202071810758695	-0.49127211954104194	-0.20577022360770386	1.5732368184367593	-0.45739004311405257							-0.191736951042901	1.5583830006683068	-0.45257096978303973	-0.17938926616945286	1.8776233417132873	-0.6422004937964831	-0.16987630248808194	1.729438050591533	-0.6312197092093959	-0.16343379232006458	1.5767298445240436	-0.6196326535073039	-0.1916564394674461	1.5367019849367884	-0.6575221866150185	-0.29186234760348023	1.4858349960479273	-1.106403734367865	-0.15687499540366984	1.5670630838661734	-0.5955503019170397	-0.18377597495346806	2.0505231305230254	-0.5913777281482229	-0.22396218462383471	2.116538755153861	-0.6134740995061128	-0.20369721232642385	2.0476810579843168	-0.5035838975003003	-0.2108224005550097	1.9500802485101085	-0.4759704594353224	-0.22798553936289065	1.8648360188709898	-0.45280069624347	-0.16129369597229887	2.053599355155141	-0.6792623619558351	-0.14697164768310933	1.9706242539082608	-0.6902176596927606	-0.15082918085947195	1.8862652195957632	-0.7041802679151193
13	0.43333333333333335	-0.19888364898533728	1.8742969998354413	-0.5828453103455746	-0.21340347178579105	1.8717584860091778	-0.5192664955023392	-0.20159834596357884	1.7202071810758695	-0.49127211954104194	-0.20577022360770386	1.5732368184367593	-0.45739004311405257							-0.191736951042901	1.5583830006683068	-0.45257096978303973	-0.17938926616945286	1.8776233417132873	-0.6422004937964831	-0.16987630248808194	1.729438050591533	-0.6312197092093959	-0.16343379232006458	1.5767298445240436	-0.6196326535073039	-0.1916564394674461	1.5367019849367884	-0.6575221866150185	-0.29186234760348023	1.4858349960479273	-1.106403734367865	-0.15687499540366984	1.5670630838661734	-0.5955503019170397	-0.18377597495346806	2.0505231305230254	-0.5913777281482229	-0.22396218462383471	2.116538755153861	-0.6134740995061128	-0.20369721232642385	2.0476810579843168	-0.5035838975003003	-0.2108224005550097	1.9500802485101085	-0.4759704594353224	-0.22798553936289065	1.8648360188709898	-0.45280069624347	-0.16129369597229887	2.053599355155141	-0.6792623619558351	-0.14697164768310933	1.9706242539082608	-0.6902176596927606	-0.15082918085947195	1.8862652195957632	-0.7041802679151193
14	0.4666666666666667	-0.19685948586929047	1.8742114671535022	-0.5850750543110061	-0.2133984549932501	1.8715697172309227	-0.5193207439585894	-0.20413608898864902	1.7190350442112983	-0.48833147748850975	-0.2055853683318128	1.5720003830176368	-0.4576987490221203							-0.19288619195436973	1.558952623721792	-0.4557614368692271	-0.17934477746514424	1.8774723417250494	-0.6423008568402004	-0.1681306022079161	1.726891792579531	-0.6327251178915518	-0.16146306549046102	1.5781842306336082	-0.6216082920785738	-0.19106828791106617	1.5397019377319523	-0.6587264379701226	-0.1733102717032702	1.551701538754993	-0.67758605061849	-0.15467556219256537	1.5698932814886584	-0.5981055427796298	-0.18579449905557063	2.0504593928134347	-0.5892311933882901	-0.22397396525549937	2.115408082138729	-0.6129099602660192	-0.2038701515915762	2.0465817427222714	-0.503563742584111	-0.2108361055232455	1.950285374405111	-0.47586017691364124	-0.2283604773645208	1.865820720896347	-0.45305867724374166	-0.1633813505097891	2.053493878683868	-0.6771240053861804	-0.14697164768310933	1.9706242539082608	-0.6902176596927606	-0.15082918085947195	1.8862652195957632	-0.7041802679151193
15	0.5	-0.19704543071933375	1.8770309220941992	-0.5855666236897985	-0.21374619941736683	1.8728655202025164	-0.519695556991934	-0.20395597167081433	1.7203756932690917	-0.4887432218987025	-0.20578702294840664	1.5705342318909479	-0.4571183167661951							-0.19177878597194783	1.5584232286079924	-0.4525318780209206	-0.1794196547140545	1.8789314607523153	-0.6425346936249159	-0.16794073549130611	1.7282143270992338	-0.6331285426012191	-0.16103177767640872	1.5782638870981451	-0.6224141801613606	-0.19075057749003888	1.541211554221277	-0.6593876438744897	-0.1733733218777438	1.5523020588148382	-0.6776248447995763	-0.15443388488107732	1.571146720005008	-0.5987325768247499	-0.1857527511560386	2.050485815999957	-0.5892539604508717	-0.22397979661158463	2.1166210369611496	-0.6133896376937271	-0.2037108155282538	2.047696179697084	-0.5035435458024093	-0.21083117928784542	1.9503223774393996	-0.47582031996163476	-0.22821471606233162	1.8672815515815229	-0.45317614422344366	-0.16132437962326474	2.0535752167000516	-0.6792822815204047	-0.14697164768310933	1.9706242539082608	-0.6902176596927606	-0.15082918085947195	1.8862652195957632	-0.7041802679151193
16	0.5333333333333333	-0.19910712194539332	1.8769798913758564	-0.5833575848599264	-0.21361621040985188	1.8742486362231048	-0.5197729024416232	-0.20432990829287348	1.7231841899892855	-0.4887175713416109	-0.2061895862219445	1.5725479300636822	-0.4568068802337556							-0.1932656742624223	1.5607912661561	-0.4554995061714673	-0.179521288437231	1.878990700053275	-0.6425116596445908	-0.1679270951933707	1.728299215424746	-0.633150449990099	-0.16174870618210077	1.5768558465371942	-0.621059321377173	-0.19173031094472714	1.53692476823586	-0.657400573729901	-0.29181520671073985	1.486169052492628	-1.1064329021466035	-0.1526353042846509	1.5673625305881758	-0.6000207894952234	-0.18580411079959175	2.050501729184284	-0.5892220329223993	-0.22398436638337046	2.1153448677180653	-0.6129067320927288	-0.2037660469039871	2.0476614046506287	-0.5035833884345613	-0.21079005613815846	1.9527965628607744	-0.47625573711610225	-0.2302039736710687	1.868113874573519	-0.4512858457270683	-0.16341889454457742	2.054726439624811	-0.6775199508570223	-0.14697164768310933	1.9706242539082608	-0.6902176596927606	-0.15082918085947195	1.8862652195957632	-0.7041802679151193
17	0.5666666666666667	-0.19879210317341584	1.8728080144883215	-0.5826066911008831	-0.21250237223260093	1.8689508343195231	-0.5156602903969132	-0.20199147142640358	1.7205623422398553	-0.4909679817002844	-0.20694236591827328	1.5709838050967753	-0.46043243603536116							-0.19506421391578244	1.5597608914649461	-0.4536335299332479	-0.17930141917193815	1.8762257876973198	-0.6419955034868555	-0.16796835227143594	1.7255614589806334	-0.6328099908012023	-0.16159348827078684	1.5754246683009918	-0.6212618915209787	-0.19169646619053426	1.536721335635367	-0.6574571817838611	-0.29178302174422543	1.483285604737618	-1.1055838306549726	-0.1559193384462289	1.565896710917139	-0.6003585798600424	-0.1857627976592217	2.0505235098836994	-0.5892931995400387	-0.22400102589367987	2.115329719676781	-0.6128694787609607	-0.20463580360424835	2.047713027942486	-0.5066172679805526	-0.21081025325211591	1.9502868885848572	-0.4759261356008155	-0.2274235015759156	1.8668259159137166	-0.4500480808464572	-0.1613092137332983	2.0536246437911596	-0.6792756885396648	-0.14697164768310933	1.9706242539082608	-0.6902176596927606	-0.15082918085947195	1.8862652195957632	-0.7041802679151193
18	0.6	-0.19688416144884516	1.8741712568611577	-0.5850242194763127	-0.21262678566495918	1.8701264874665962	-0.515868869508147	-0.20202427436346568	1.7206576251120795	-0.49099587682259366	-0.20607577038550143	1.572114436694453	-0.4568504078521575							-0.19321205566015998	1.5605282784473207	-0.4555097176614889	-0.17925071738199108	1.8762415954853855	-0.6420854450157021	-0.16981263197537252	1.729450831085715	-0.6312885236320035	-0.16151918398649875	1.5782699597199745	-0.6216151065839731	-0.19398232815934172	1.5371187648959945	-0.6552346232219536	-0.29186704542200936	1.4832056903818458	-1.1054791687108556	-0.15497037178375517	1.5686676062028453	-0.5975549841235055	-0.18578328703809108	2.0504801507153765	-0.5892884944330223	-0.22403561448489243	2.115279107954667	-0.6129345765475107	-0.2047138330006677	2.0477127060501923	-0.5065049833141398	-0.21294806161516636	1.9492548902310805	-0.47366435951057934	-0.23167554650140731	1.8648937531369867	-0.445195408549939	-0.16127663764776828	2.053679849963191	-0.6793380928209795	-0.14697164768310933	1.9706242539082608	-0.6902176596927606	-0.15082918085947195	1.8862652195957632	-0.7041802679151193
19	0.6333333333333333	-0.19476704487795854	1.8744989459970136	-0.5872685931179485	-0.2114627800856711	1.8717594628315084	-0.5215071019036869	-0.20382706163352726	1.7218241446836977	-0.4891772792738182	-0.2055818962307576	1.571991868634128	-0.4577066336780644							-0.1918739533339963	1.5588788753363156	-0.45256627433469643	-0.17718079149408023	1.8775699792608935	-0.6444247441917351	-0.17006923664762383	1.7280917331310153	-0.6308554329015994	-0.16124277190705524	1.5795969671528798	-0.6221767969341959	-0.19166031769219166	1.5368577614100893	-0.6574896361480466	-0.29188277059355716	1.48557833326894	-1.1063687031207738	-0.15465061351097023	1.5699289546159	-0.5981883360107777	-0.18581867852297038	2.050431246513216	-0.5891820951123402	-0.22402692348033132	2.1165223561972697	-0.6134460928233925	-0.20576680848134135	2.0465412990756047	-0.5014748364579455	-0.21510702747218993	1.9522321100526525	-0.4723454607983175	-0.24477069180380728	1.8705148858076883	-0.4360840703208083	-0.16340991917908393	2.054714829625507	-0.6774712467560597	-0.14697164768310933	1.9706242539082608	-0.6902176596927606	-0.15082918085947195	1.8862652195957632	-0.7041802679151193
20	0.6666666666666666	-0.19691055753918743	1.875721264601837	-0.5853941367216291	-0.21250229313274105	1.8730541155450096	-0.5250495340164645	-0.2018325014998473	1.7218337926861573	-0.49145220414784696	-0.2068212270129289	1.5703093618655863	-0.46043619021563437							-0.19501639487399913	1.5571182150603797	-0.45302949579842605	-0.1792151988623989	1.8800257204866704	-0.6426497375425478	-0.17009173095085758	1.728150638621877	-0.6309194920944052	-0.16151119446222365	1.5782080013091855	-0.6215354650279149	-0.19137316181228092	1.5380391549195167	-0.6581973610056903	-0.17356789261336225	1.5498763575596342	-0.6770197758727458	-0.15493633774440574	1.5687197520284097	-0.5975257436205033	-0.1857915671917257	2.050509833886422	-0.5892535747770612	-0.22395788056853472	2.117709013925644	-0.6131921387571501	-0.20370904108835663	2.0477437070438738	-0.5036146378336896	-0.21979201829297199	1.9596692039519583	-0.4719987576184751	-0.2699007739604741	1.8851007925826455	-0.4447929169977555	-0.16339642353849798	2.053541952587394	-0.6770970189713266	-0.14668452200005236	1.9720012739381914	-0.6894911688937432	-0.5869087476025114	1.8763543482983642	-0.2324212840123196
21	0.7	-0.19664549614995366	1.875679548300457	-0.5852888686364363	-0.21122505031874603	1.8731459873638896	-0.5216810990008591	-0.20380976356316108	1.721895981679413	-0.4892451771831504	-0.2068325509958985	1.5705460500981665	-0.4604763368090699							-0.193209795035717	1.5605829024668343	-0.4555217533699297	-0.17897053882996852	1.8788644072437921	-0.6423976231087093	-0.17092360981113744	1.7281672433662363	-0.6339761605139203	-0.16149619443754942	1.578347880290643	-0.6217150516313481	-0.19352569127365368	1.537981582190956	-0.655866676968298	-0.2919143137685073	1.4858900737185199	-1.10629766783531	-0.15346670070922072	1.5701139210906803	-0.6036066488334686	-0.183811043399875	2.0506293165642244	-0.5915903711855562	-0.2258820620893557	2.117834540412031	-0.6111010897899166	-0.20275475639155485	2.046783173758826	-0.5089521713629573	-0.23342233096659554	1.9674034928875914	-0.46651879483167824	-0.29918135417677877	1.9082915905956725	-0.4473130482271229	-0.16337971513924748	2.053845338339806	-0.6771983474859087	-0.14639739631699536	1.973378293968122	-0.6887646780947259	-1.0229883143455512	1.8664434770009652	0.23933769989048015
